<?xml version="1.0" standalone="no"?><!DOCTYPE svg PUBLIC "-//W3C//DTD SVG 1.1//EN" "http://www.w3.org/Graphics/SVG/1.1/DTD/svg11.dtd"><svg t="1743491124089" class="icon" viewBox="0 0 1024 1024" version="1.1" xmlns="http://www.w3.org/2000/svg" p-id="6037" xmlns:xlink="http://www.w3.org/1999/xlink" width="200" height="200"><path d="M431.616 355.84C435.2 293.376 392.704 237.568 327.68 233.984c-128.512-7.168-160.768 34.816-237.056 102.912 70.144-153.6 143.36-239.616 261.632-275.456 50.176-16.384 77.312-14.848 132.096-11.776l98.304 5.632c24.576 1.536 48.64 10.752 67.072 25.6 28.672 23.552 26.624 35.84 63.488 38.912 10.752 0.512 19.456-7.168 19.968-17.92s9.216-18.432 19.968-17.92l95.744 5.12c22.016 1.024 37.376 18.432 35.84 40.448l-10.752 193.536c-1.024 22.016-18.432 37.376-40.448 35.84L742.4 352.768c-10.752-0.512-18.432-9.216-17.92-19.968s-8.192-20.992-19.456-21.504c-38.4-2.048-37.376 10.24-67.584 31.744-21.504 13.824-45.056 19.456-69.632 17.92l-136.192-5.12" fill="#07AD76" p-id="6038"></path><path d="M431.616 355.84l0.512 438.784c-2.048 32.768 22.528 62.976 53.76 63.488l38.4 2.048c32.768 2.048 58.88-24.064 60.928-56.832V360.96l-153.6-5.12zM0 955.904h1024v51.2H0z" fill="#115ECE" p-id="6039"></path></svg>